{
	"asset":{
		"generator":"Khronos glTF Blender I/O v4.4.56",
		"version":"2.0"
	},
	"scene":0,
	"scenes":[
		{
			"name":"Scene",
			"nodes":[
				56
			]
		}
	],
	"nodes":[
		{
			"mesh":0,
			"name":"Human"
		},
		{
			"mesh":1,
			"name":"pants"
		},
		{
			"mesh":2,
			"name":"tshirt"
		},
		{
			"name":"index_03_l",
			"rotation":[
				0.06060496345162392,
				0.00016183832485694438,
				0.016979806125164032,
				0.998017430305481
			],
			"scale":[
				1.0000001192092896,
				1,
				1
			],
			"translation":[
				1.4901161193847656e-08,
				0.025366902351379395,
				-5.960464477539063e-08
			]
		},
		{
			"children":[
				3
			],
			"name":"index_02_l",
			"rotation":[
				0.1062500923871994,
				-0.006514409556984901,
				0.006954611279070377,
				0.9942938089370728
			],
			"scale":[
				1,
				0.9999998807907104,
				1
			],
			"translation":[
				-2.9802322387695312e-08,
				0.02830907702445984,
				5.960464477539063e-08
			]
		},
		{
			"children":[
				4
			],
			"name":"index_01_l",
			"rotation":[
				0.10676122456789017,
				0.4704988896846771,
				-1.8207139873993583e-05,
				0.8759183287620544
			],
			"scale":[
				0.9999999403953552,
				1,
				0.9999999403953552
			],
			"translation":[
				-0.014791306108236313,
				0.11519569158554077,
				0.00899340957403183
			]
		},
		{
			"name":"middle_03_l",
			"rotation":[
				0.06782513856887817,
				-0.004550648387521505,
				-0.005374991800636053,
				0.9976723790168762
			],
			"scale":[
				0.9999999403953552,
				0.9999998807907104,
				0.9999998807907104
			],
			"translation":[
				-4.470348358154297e-08,
				0.02998708188533783,
				5.960464477539063e-08
			]
		},
		{
			"children":[
				6
			],
			"name":"middle_02_l",
			"rotation":[
				0.045783884823322296,
				-0.004975809715688229,
				0.03808983787894249,
				0.9982125163078308
			],
			"scale":[
				0.9999999403953552,
				0.9999998807907104,
				0.9999998807907104
			],
			"translation":[
				5.960464477539063e-08,
				0.03686017543077469,
				7.450580596923828e-09
			]
		},
		{
			"children":[
				7
			],
			"name":"middle_01_l",
			"rotation":[
				0.09815206378698349,
				0.40581613779067993,
				-0.1494525521993637,
				0.8962942957878113
			],
			"scale":[
				1.0000001192092896,
				1.0000001192092896,
				1
			],
			"translation":[
				0.0034183524549007416,
				0.11137086153030396,
				-0.013092316687107086
			]
		},
		{
			"name":"pinky_03_l",
			"rotation":[
				-0.006279756780713797,
				-0.0037737416569143534,
				-0.00962141714990139,
				0.9999268651008606
			],
			"scale":[
				1.0000001192092896,
				1,
				1
			],
			"translation":[
				-5.960464477539063e-08,
				0.017032738775014877,
				-1.862645149230957e-08
			]
		},
		{
			"children":[
				9
			],
			"name":"pinky_02_l",
			"rotation":[
				0.08232220262289047,
				-0.005569820292294025,
				0.022216765210032463,
				0.9963425397872925
			],
			"scale":[
				0.9999997615814209,
				0.9999998211860657,
				0.9999998807907104
			],
			"translation":[
				0,
				0.02331000566482544,
				1.1175870895385742e-08
			]
		},
		{
			"children":[
				10
			],
			"name":"pinky_01_l",
			"rotation":[
				0.051290396600961685,
				0.2818150818347931,
				-0.2981337606906891,
				0.9105305075645447
			],
			"translation":[
				0.03749546408653259,
				0.09068726003170013,
				-0.03417427837848663
			]
		},
		{
			"name":"ring_03_l",
			"rotation":[
				0.06621463596820831,
				-0.010844174772500992,
				-0.026695771142840385,
				0.9973893165588379
			],
			"scale":[
				0.9999999403953552,
				1,
				1
			],
			"translation":[
				-2.9802322387695312e-08,
				0.02713990956544876,
				5.960464477539063e-08
			]
		},
		{
			"children":[
				12
			],
			"name":"ring_02_l",
			"rotation":[
				0.055358096957206726,
				-0.001451830263249576,
				0.04723628610372543,
				0.9973475337028503
			],
			"scale":[
				1,
				0.9999998807907104,
				0.9999998211860657
			],
			"translation":[
				2.9802322387695312e-08,
				0.032472193241119385,
				3.725290298461914e-08
			]
		},
		{
			"children":[
				13
			],
			"name":"ring_01_l",
			"rotation":[
				0.05512179434299469,
				0.38169509172439575,
				-0.22911138832569122,
				0.8937440514564514
			],
			"scale":[
				1,
				1,
				0.9999999403953552
			],
			"translation":[
				0.018935073167085648,
				0.10279795527458191,
				-0.026482395827770233
			]
		},
		{
			"name":"thumb_03_l",
			"rotation":[
				0.14160984754562378,
				0.02365828864276409,
				-0.04025733470916748,
				0.9888206720352173
			],
			"scale":[
				1,
				1.000000238418579,
				1
			],
			"translation":[
				-3.725290298461914e-09,
				0.03984309732913971,
				2.2351741790771484e-08
			]
		},
		{
			"children":[
				15
			],
			"name":"thumb_02_l",
			"rotation":[
				0.0519229881465435,
				-0.024362046271562576,
				-0.18687433004379272,
				0.9807081818580627
			],
			"scale":[
				1.0000001192092896,
				0.9999999403953552,
				1.0000001192092896
			],
			"translation":[
				-1.30385160446167e-08,
				0.03352999687194824,
				-5.587935447692871e-08
			]
		},
		{
			"children":[
				16
			],
			"name":"thumb_01_l",
			"rotation":[
				0.2783048748970032,
				0.7044192552566528,
				0.42949461936950684,
				0.49180710315704346
			],
			"scale":[
				0.9999999403953552,
				0.9999998211860657,
				1.0000001192092896
			],
			"translation":[
				-0.016217388212680817,
				0.04353366792201996,
				0.015525124967098236
			]
		},
		{
			"children":[
				5,
				8,
				11,
				14,
				17
			],
			"name":"hand_l",
			"rotation":[
				0.10511571168899536,
				0.39631134271621704,
				-0.018570322543382645,
				0.911889910697937
			],
			"scale":[
				1.0000001192092896,
				1.0000001192092896,
				1.0000001192092896
			],
			"translation":[
				6.565824151039124e-08,
				0.266664057970047,
				-1.4901161193847656e-08
			]
		},
		{
			"children":[
				18
			],
			"name":"lowerarm_l",
			"rotation":[
				0.3946935534477234,
				0.03059723973274231,
				0.02555660717189312,
				0.91794753074646
			],
			"scale":[
				0.9999998807907104,
				1,
				0.9999999403953552
			],
			"translation":[
				8.032657206058502e-09,
				0.25152480602264404,
				-4.6566128730773926e-09
			]
		},
		{
			"children":[
				19
			],
			"name":"upperarm_l",
			"rotation":[
				-0.013122170232236385,
				0.024051690474152565,
				-0.33109790086746216,
				0.943198561668396
			],
			"scale":[
				1,
				0.9999998807907104,
				0.9999998807907104
			],
			"translation":[
				1.979060471057892e-09,
				0.1659960001707077,
				-1.30385160446167e-08
			]
		},
		{
			"children":[
				20
			],
			"name":"clavicle_l",
			"rotation":[
				0.004991747904568911,
				0.044002190232276917,
				-0.7647889852523804,
				0.6427571177482605
			],
			"scale":[
				0.9999999403953552,
				1,
				0.9999999403953552
			],
			"translation":[
				0.022850297391414642,
				0.2563968300819397,
				0.09259180724620819
			]
		},
		{
			"name":"index_03_r",
			"rotation":[
				0.06060496345162392,
				-0.00016183832485694438,
				-0.016979806125164032,
				0.998017430305481
			],
			"scale":[
				1.0000001192092896,
				1,
				1
			],
			"translation":[
				-1.4901161193847656e-08,
				0.025366902351379395,
				-5.960464477539063e-08
			]
		},
		{
			"children":[
				22
			],
			"name":"index_02_r",
			"rotation":[
				0.1062500923871994,
				0.006514409556984901,
				-0.006954611279070377,
				0.9942938089370728
			],
			"scale":[
				1,
				0.9999998807907104,
				1
			],
			"translation":[
				2.9802322387695312e-08,
				0.02830907702445984,
				5.960464477539063e-08
			]
		},
		{
			"children":[
				23
			],
			"name":"index_01_r",
			"rotation":[
				0.10676122456789017,
				-0.4704988896846771,
				1.8207139873993583e-05,
				0.8759183287620544
			],
			"scale":[
				0.9999999403953552,
				1,
				0.9999999403953552
			],
			"translation":[
				0.014791306108236313,
				0.11519569158554077,
				0.00899340957403183
			]
		},
		{
			"name":"middle_03_r",
			"rotation":[
				0.06782513856887817,
				0.004550648387521505,
				0.005374991800636053,
				0.9976723790168762
			],
			"scale":[
				0.9999999403953552,
				0.9999998807907104,
				0.9999998807907104
			],
			"translation":[
				4.470348358154297e-08,
				0.02998708188533783,
				5.960464477539063e-08
			]
		},
		{
			"children":[
				25
			],
			"name":"middle_02_r",
			"rotation":[
				0.045783884823322296,
				0.004975809715688229,
				-0.03808983787894249,
				0.9982125163078308
			],
			"scale":[
				0.9999999403953552,
				0.9999998807907104,
				0.9999998807907104
			],
			"translation":[
				-5.960464477539063e-08,
				0.03686017543077469,
				7.450580596923828e-09
			]
		},
		{
			"children":[
				26
			],
			"name":"middle_01_r",
			"rotation":[
				0.09815206378698349,
				-0.40581613779067993,
				0.1494525521993637,
				0.8962942957878113
			],
			"scale":[
				1.0000001192092896,
				1.0000001192092896,
				1
			],
			"translation":[
				-0.0034183524549007416,
				0.11137086153030396,
				-0.013092316687107086
			]
		},
		{
			"name":"pinky_03_r",
			"rotation":[
				-0.006279756780713797,
				0.0037737416569143534,
				0.00962141714990139,
				0.9999268651008606
			],
			"scale":[
				1.0000001192092896,
				1,
				1
			],
			"translation":[
				5.960464477539063e-08,
				0.017032738775014877,
				-1.862645149230957e-08
			]
		},
		{
			"children":[
				28
			],
			"name":"pinky_02_r",
			"rotation":[
				0.08232220262289047,
				0.005569820292294025,
				-0.022216765210032463,
				0.9963425397872925
			],
			"scale":[
				0.9999997615814209,
				0.9999998211860657,
				0.9999998807907104
			],
			"translation":[
				0,
				0.02331000566482544,
				1.1175870895385742e-08
			]
		},
		{
			"children":[
				29
			],
			"name":"pinky_01_r",
			"rotation":[
				0.051290396600961685,
				-0.2818150818347931,
				0.2981337606906891,
				0.9105305075645447
			],
			"translation":[
				-0.03749546408653259,
				0.09068726003170013,
				-0.03417427837848663
			]
		},
		{
			"name":"ring_03_r",
			"rotation":[
				0.06621463596820831,
				0.010844174772500992,
				0.026695771142840385,
				0.9973893165588379
			],
			"scale":[
				0.9999999403953552,
				1,
				1
			],
			"translation":[
				2.9802322387695312e-08,
				0.02713990956544876,
				5.960464477539063e-08
			]
		},
		{
			"children":[
				31
			],
			"name":"ring_02_r",
			"rotation":[
				0.055358096957206726,
				0.001451830263249576,
				-0.04723628610372543,
				0.9973475337028503
			],
			"scale":[
				1,
				0.9999998807907104,
				0.9999998211860657
			],
			"translation":[
				-2.9802322387695312e-08,
				0.032472193241119385,
				3.725290298461914e-08
			]
		},
		{
			"children":[
				32
			],
			"name":"ring_01_r",
			"rotation":[
				0.05512179434299469,
				-0.38169509172439575,
				0.22911138832569122,
				0.8937440514564514
			],
			"scale":[
				1,
				1,
				0.9999999403953552
			],
			"translation":[
				-0.018935073167085648,
				0.10279795527458191,
				-0.026482395827770233
			]
		},
		{
			"name":"thumb_03_r",
			"rotation":[
				0.14160984754562378,
				-0.02365828864276409,
				0.04025733470916748,
				0.9888206720352173
			],
			"scale":[
				1,
				1.000000238418579,
				1
			],
			"translation":[
				3.725290298461914e-09,
				0.03984309732913971,
				2.2351741790771484e-08
			]
		},
		{
			"children":[
				34
			],
			"name":"thumb_02_r",
			"rotation":[
				0.0519229881465435,
				0.024362046271562576,
				0.18687433004379272,
				0.9807081818580627
			],
			"scale":[
				1.0000001192092896,
				0.9999999403953552,
				1.0000001192092896
			],
			"translation":[
				1.30385160446167e-08,
				0.03352999687194824,
				-5.587935447692871e-08
			]
		},
		{
			"children":[
				35
			],
			"name":"thumb_01_r",
			"rotation":[
				0.2783048748970032,
				-0.7044192552566528,
				-0.42949461936950684,
				0.49180710315704346
			],
			"scale":[
				0.9999999403953552,
				0.9999998211860657,
				1.0000001192092896
			],
			"translation":[
				0.016217388212680817,
				0.04353366792201996,
				0.015525124967098236
			]
		},
		{
			"children":[
				24,
				27,
				30,
				33,
				36
			],
			"name":"hand_r",
			"rotation":[
				0.10511571168899536,
				-0.39631134271621704,
				0.018570322543382645,
				0.911889910697937
			],
			"scale":[
				1.0000001192092896,
				1.0000001192092896,
				1.0000001192092896
			],
			"translation":[
				-6.565824151039124e-08,
				0.266664057970047,
				-1.4901161193847656e-08
			]
		},
		{
			"children":[
				37
			],
			"name":"lowerarm_r",
			"rotation":[
				0.3946935534477234,
				-0.03059723973274231,
				-0.02555660717189312,
				0.91794753074646
			],
			"scale":[
				0.9999998807907104,
				1,
				0.9999999403953552
			],
			"translation":[
				-8.032657206058502e-09,
				0.25152480602264404,
				-4.6566128730773926e-09
			]
		},
		{
			"children":[
				38
			],
			"name":"upperarm_r",
			"rotation":[
				-0.013122170232236385,
				-0.024051690474152565,
				0.33109790086746216,
				0.943198561668396
			],
			"scale":[
				1,
				0.9999998807907104,
				0.9999998807907104
			],
			"translation":[
				-1.979060471057892e-09,
				0.1659960001707077,
				-1.30385160446167e-08
			]
		},
		{
			"children":[
				39
			],
			"name":"clavicle_r",
			"rotation":[
				0.004991747904568911,
				-0.044002190232276917,
				0.7647889852523804,
				0.6427571177482605
			],
			"scale":[
				0.9999999403953552,
				1,
				0.9999999403953552
			],
			"translation":[
				-0.022850297391414642,
				0.2563968300819397,
				0.09259180724620819
			]
		},
		{
			"name":"head",
			"rotation":[
				-0.19559484720230103,
				0,
				0,
				0.980684757232666
			],
			"scale":[
				1,
				0.9999999403953552,
				0.9999999403953552
			],
			"translation":[
				0,
				0.10318425297737122,
				4.842877388000488e-08
			]
		},
		{
			"children":[
				41
			],
			"name":"neck_01",
			"rotation":[
				0.25270262360572815,
				0,
				0,
				0.9675440192222595
			],
			"scale":[
				1,
				1.0000001192092896,
				1.0000001192092896
			],
			"translation":[
				0,
				0.33171790838241577,
				0.09271641075611115
			]
		},
		{
			"children":[
				21,
				40,
				42
			],
			"name":"spine_03",
			"rotation":[
				-0.011703165248036385,
				0,
				0,
				0.9999315142631531
			],
			"scale":[
				1,
				0.9999999403953552,
				0.9999998807907104
			],
			"translation":[
				0,
				0.0611153319478035,
				-9.313225746154785e-09
			]
		},
		{
			"children":[
				43
			],
			"name":"spine_02",
			"rotation":[
				-0.13355094194412231,
				0,
				0,
				0.9910419583320618
			],
			"scale":[
				1,
				1.0000001192092896,
				1
			],
			"translation":[
				0,
				0.07041444629430771,
				3.725290298461914e-09
			]
		},
		{
			"children":[
				44
			],
			"name":"spine_01",
			"rotation":[
				0.23930580914020538,
				0,
				0,
				0.9709442853927612
			],
			"translation":[
				0,
				0.09223316609859467,
				1.6763806343078613e-08
			]
		},
		{
			"name":"ball_l",
			"rotation":[
				-0.252080500125885,
				-0.24984700977802277,
				0.10382016003131866,
				0.9291142821311951
			],
			"scale":[
				0.9999998807907104,
				1,
				0.9999999403953552
			],
			"translation":[
				6.83940015733242e-09,
				0.1405400037765503,
				-9.778887033462524e-09
			]
		},
		{
			"children":[
				46
			],
			"name":"foot_l",
			"rotation":[
				-0.5354671478271484,
				-0.02809104695916176,
				0.021361883729696274,
				0.8438184261322021
			],
			"scale":[
				0.9999998807907104,
				1,
				0.9999998807907104
			],
			"translation":[
				1.2412783689796925e-08,
				0.4351045787334442,
				2.3283064365386963e-10
			]
		},
		{
			"children":[
				47
			],
			"name":"calf_l",
			"rotation":[
				0.052983757108449936,
				0.2396654188632965,
				-0.014489755965769291,
				0.9693004488945007
			],
			"scale":[
				0.9999999403953552,
				0.9999998807907104,
				1
			],
			"translation":[
				0,
				0.41764727234840393,
				1.862645149230957e-09
			]
		},
		{
			"children":[
				48
			],
			"name":"thigh_l",
			"rotation":[
				-0.9651148319244385,
				-0.08017649501562119,
				0.2191934734582901,
				0.11865606904029846
			],
			"scale":[
				1.000000238418579,
				1.0000001192092896,
				1.0000015497207642
			],
			"translation":[
				0.10853513330221176,
				-0.0014180333819240332,
				-0.011715410277247429
			]
		},
		{
			"name":"ball_r",
			"rotation":[
				-0.252080500125885,
				0.24984700977802277,
				-0.10382016003131866,
				0.9291142821311951
			],
			"scale":[
				0.9999998807907104,
				1,
				0.9999999403953552
			],
			"translation":[
				-6.83940015733242e-09,
				0.1405400037765503,
				-9.778887033462524e-09
			]
		},
		{
			"children":[
				50
			],
			"name":"foot_r",
			"rotation":[
				-0.5354671478271484,
				0.02809104695916176,
				-0.021361883729696274,
				0.8438184261322021
			],
			"scale":[
				0.9999998807907104,
				1,
				0.9999998807907104
			],
			"translation":[
				-1.2412783689796925e-08,
				0.4351045787334442,
				2.3283064365386963e-10
			]
		},
		{
			"children":[
				51
			],
			"name":"calf_r",
			"rotation":[
				0.052983757108449936,
				-0.2396654188632965,
				0.014489755965769291,
				0.9693004488945007
			],
			"scale":[
				0.9999999403953552,
				0.9999998807907104,
				1
			],
			"translation":[
				0,
				0.41764727234840393,
				1.862645149230957e-09
			]
		},
		{
			"children":[
				52
			],
			"name":"thigh_r",
			"rotation":[
				-0.9651148319244385,
				0.08017649501562119,
				-0.2191934734582901,
				0.11865606904029846
			],
			"scale":[
				1.000000238418579,
				1.0000001192092896,
				1.0000015497207642
			],
			"translation":[
				-0.10853513330221176,
				-0.0014180333819240332,
				-0.011715410277247429
			]
		},
		{
			"children":[
				45,
				49,
				53
			],
			"name":"pelvis",
			"rotation":[
				0.5726680159568787,
				0,
				0,
				0.8197873830795288
			],
			"translation":[
				0,
				-0.0032745394855737686,
				0.922996997833252
			]
		},
		{
			"children":[
				54
			],
			"name":"Root",
			"rotation":[
				-0.7071067690849304,
				0,
				0,
				0.7071067690849304
			],
			"translation":[
				0,
				0.000305861234664917,
				6.100162863731384e-08
			]
		},
		{
			"children":[
				0,
				1,
				2,
				55
			],
			"name":"Human.rig"
		}
	],
	"meshes":[
		{
			"name":"base.003",
			"primitives":[
				{
					"attributes":{
						"POSITION":0,
						"NORMAL":1,
						"TEXCOORD_0":2
					},
					"indices":3
				}
			]
		},
		{
			"name":"male_casualsuit06",
			"primitives":[
				{
					"attributes":{
						"POSITION":4,
						"NORMAL":5,
						"TEXCOORD_0":6
					},
					"indices":7
				}
			]
		},
		{
			"name":"male_casualsuit06.001",
			"primitives":[
				{
					"attributes":{
						"POSITION":8,
						"NORMAL":9,
						"TEXCOORD_0":10
					},
					"indices":11
				}
			]
		}
	],
	"accessors":[
		{
			"bufferView":0,
			"componentType":5126,
			"count":21833,
			"max":[
				0.49732011556625366,
				1.6682813167572021,
				0.3256400525569916
			],
			"min":[
				-0.49732011556625366,
				-0.026269137859344482,
				-0.11034002900123596
			],
			"type":"VEC3"
		},
		{
			"bufferView":1,
			"componentType":5126,
			"count":21833,
			"type":"VEC3"
		},
		{
			"bufferView":2,
			"componentType":5126,
			"count":21833,
			"type":"VEC2"
		},
		{
			"bufferView":3,
			"componentType":5123,
			"count":110916,
			"type":"SCALAR"
		},
		{
			"bufferView":4,
			"componentType":5126,
			"count":950,
			"max":[
				0.2547207474708557,
				0.9942494630813599,
				0.13537806272506714
			],
			"min":[
				-0.24949000775814056,
				0.06409633904695511,
				-0.10848714411258698
			],
			"type":"VEC3"
		},
		{
			"bufferView":5,
			"componentType":5126,
			"count":950,
			"type":"VEC3"
		},
		{
			"bufferView":6,
			"componentType":5126,
			"count":950,
			"type":"VEC2"
		},
		{
			"bufferView":7,
			"componentType":5123,
			"count":5136,
			"type":"SCALAR"
		},
		{
			"bufferView":8,
			"componentType":5126,
			"count":2985,
			"max":[
				0.3071182072162628,
				1.4828344583511353,
				0.16745489835739136
			],
			"min":[
				-0.32012733817100525,
				0.8880832195281982,
				-0.11263203620910645
			],
			"type":"VEC3"
		},
		{
			"bufferView":9,
			"componentType":5126,
			"count":2985,
			"type":"VEC3"
		},
		{
			"bufferView":10,
			"componentType":5126,
			"count":2985,
			"type":"VEC2"
		},
		{
			"bufferView":11,
			"componentType":5123,
			"count":16368,
			"type":"SCALAR"
		}
	],
	"bufferViews":[
		{
			"buffer":0,
			"byteLength":261996,
			"byteOffset":0,
			"target":34962
		},
		{
			"buffer":0,
			"byteLength":261996,
			"byteOffset":261996,
			"target":34962
		},
		{
			"buffer":0,
			"byteLength":174664,
			"byteOffset":523992,
			"target":34962
		},
		{
			"buffer":0,
			"byteLength":221832,
			"byteOffset":698656,
			"target":34963
		},
		{
			"buffer":0,
			"byteLength":11400,
			"byteOffset":920488,
			"target":34962
		},
		{
			"buffer":0,
			"byteLength":11400,
			"byteOffset":931888,
			"target":34962
		},
		{
			"buffer":0,
			"byteLength":7600,
			"byteOffset":943288,
			"target":34962
		},
		{
			"buffer":0,
			"byteLength":10272,
			"byteOffset":950888,
			"target":34963
		},
		{
			"buffer":0,
			"byteLength":35820,
			"byteOffset":961160,
			"target":34962
		},
		{
			"buffer":0,
			"byteLength":35820,
			"byteOffset":996980,
			"target":34962
		},
		{
			"buffer":0,
			"byteLength":23880,
			"byteOffset":1032800,
			"target":34962
		},
		{
			"buffer":0,
			"byteLength":32736,
			"byteOffset":1056680,
			"target":34963
		}
	],
	"buffers":[
		{
			"byteLength":1089416,
			"uri":"male3.bin"
		}
	]
}
